<svg width="32" height="32" viewBox="0 0 32 32" fill="none" xmlns="http://www.w3.org/2000/svg">
  <circle cx="16" cy="16" r="16" fill="url(#gradient)"/>
  <path d="M22 12c-.8.4-1.6.6-2.5.8.9-.5 1.6-1.3 1.9-2.2-.8.5-1.7.8-2.7 1-.8-.8-1.9-1.3-3.1-1.3-2.3 0-4.2 1.9-4.2 4.2 0 .3 0 .6.1.9-3.5-.2-6.6-1.9-8.7-4.4-.4.6-.6 1.3-.6 2.1 0 1.5.7 2.8 1.8 3.5-.7 0-1.3-.2-1.9-.5v.1c0 2 1.4 3.7 3.3 4.1-.3.1-.7.1-1.1.1-.3 0-.5 0-.8-.1.5 1.6 2.1 2.8 3.9 2.8-1.4 1.1-3.2 1.8-5.2 1.8-.3 0-.7 0-1-.1 1.9 1.2 4.1 1.9 6.5 1.9 7.8 0 12.1-6.5 12.1-12.1V13c.8-.6 1.5-1.3 2.1-2.1z" fill="white"/>
  <defs>
    <linearGradient id="gradient" x1="0%" y1="0%" x2="100%" y2="100%">
      <stop offset="0%" style="stop-color:#3b82f6"/>
      <stop offset="100%" style="stop-color:#8b5cf6"/>
    </linearGradient>
  </defs>
</svg>